<?xml version="1.0" standalone="no"?><svg xmlns="http://www.w3.org/2000/svg" viewBox="0 0 1440 320"><path fill="#21325E " fill-opacity="1" d="M0,224L40,208C80,192,160,160,240,154.7C320,149,400,171,480,197.3C560,224,640,256,720,250.7C800,245,880,203,960,176C1040,149,1120,139,1200,149.3C1280,160,1360,192,1400,208L1440,224L1440,320L1400,320C1360,320,1280,320,1200,320C1120,320,1040,320,960,320C880,320,800,320,720,320C640,320,560,320,480,320C400,320,320,320,240,320C160,320,80,320,40,320L0,320Z"></path></svg>